# Hierarchical Translation and Rotation (.htr) file
# Generated by EVaRT
[Header]
FileType htr
DataType HTRS
FileVersion 1
NumSegments 23
NumFrames 4
DataFrameRate 120
EulerRotationOrder ZYX
CalibrationUnits mm
RotationUnits Degrees
GlobalAxisofGravity Y
BoneLengthAxis Y
ScaleFactor 1
[SegmentNames&Hierarchy]
#CHILD            PARENT
DaveRoot          GLOBAL
Spine1            DaveRoot
Spine2            Spine1
Spine3            Spine2
Spine4            Spine3
Neck              Spine4
Head              Neck
LClavicle         Spine4
LUpperArm         LClavicle
LLowerArm         LUpperArm
LHand             LLowerArm
RClavicle         Spine4
RUpperArm         RClavicle
RLowerArm         RUpperArm
RHand             RLowerArm
RUpperLeg         DaveRoot
RLowerLeg         RUpperLeg
RFoot             RLowerLeg
RToes             RFoot
LUpperLeg         DaveRoot
LLowerLeg         LUpperLeg
LFoot             LLowerLeg
LToes             LFoot
[BasePosition]
#SegmentName      Tx   Ty   Tz   Rx   Ry   Rz   BoneLength
DaveRoot          -2055.569378	951.555595	-349.488296	-55.286396	87.050266	-65.121985	100.000000
Spine1            0.000000	100.000000	0.000000	-15.583766	0.109194	-2.004305	100.000000
Spine2            0.000000	100.000000	0.000000	5.873579	0.737526	-1.849210	100.000000
Spine3            0.000000	100.000000	0.000000	12.197367	0.936767	-1.756723	100.000000
Spine4            0.000000	100.000000	0.000000	13.310112	2.040835	-0.212222	100.000000
Neck              0.000000	100.000000	0.000000	12.619245	0.173111	5.676401	80.000000
Head              0.000000	80.000000	0.000000	-46.107413	-7.464542	12.340102	200.000000
LClavicle         0.000000	100.000000	0.000000	1.044460	-1.911847	-125.483710	200.000000
LUpperArm         0.000000	200.000000	0.000000	43.357802	45.679579	2.001361	300.000000
LLowerArm         0.000000	300.000000	0.000000	0.730208	2.175812	1.895763	200.000000
LHand             0.000000	200.000000	0.000000	7.864047	-1.768569	8.793625	120.000000
RClavicle         0.000000	100.000000	0.000000	-0.545713	-3.840301	119.120382	200.000000
RUpperArm         0.000000	200.000000	0.000000	38.253382	-38.646808	20.273438	300.000000
RLowerArm         0.000000	300.000000	0.000000	3.077531	-3.682026	-7.348670	200.000000
RHand             0.000000	200.000000	0.000000	24.943087	4.220171	-5.193807	120.000000
RUpperLeg         -115.911102	-10.000000	31.058285	22.464267	14.037388	-176.329742	530.000000
RLowerLeg         0.000000	530.000000	0.000000	-23.704548	0.479387	-2.520024	460.000000
RFoot             0.000000	460.000000	0.000000	90.327319	5.730808	-0.531790	130.000000
RToes             0.000000	130.000000	0.000000	18.726053	0.005479	-0.002881	100.000000
LUpperLeg         115.911102	-10.000000	31.058285	16.272232	9.077962	178.396881	530.000000
LLowerLeg         0.000000	530.000000	0.000000	-9.044305	-3.275937	3.046484	460.000000
LFoot             0.000000	460.000000	0.000000	80.193205	-12.160808	23.252942	130.000000
LToes             0.000000	130.000000	0.000000	33.283153	-0.000000	-0.000086	100.000000
#Beginning of Data.
[DaveRoot]
#Fr	Tx	Ty	Tz	Rx	Ry	Rz	SF
926	1733.593304	-391.054215	186.192726	79.437060	-34.770035	-24.486273	1.000000	
927	1727.448654	-389.423322	190.797590	78.826435	-33.618239	-23.768022	1.000000	
928	1721.181524	-387.804014	195.438247	78.198532	-32.437754	-23.052919	1.000000	
929	1714.810332	-386.185711	200.094860	77.557376	-31.247975	-22.340671	1.000000	
[Spine1]
#Fr	Tx	Ty	Tz	Rx	Ry	Rz	SF
926	0.000000	0.000000	0.000000	2.930204	5.061155	3.206595	1.000000	
927	0.000000	0.000000	0.000000	2.958874	4.943778	3.287906	1.000000	
928	0.000000	0.000000	0.000000	2.996014	4.820741	3.384836	1.000000	
929	0.000000	0.000000	0.000000	3.046118	4.689860	3.488366	1.000000	
[Spine2]
#Fr	Tx	Ty	Tz	Rx	Ry	Rz	SF
926	0.000000	0.000000	0.000000	2.930204	5.061155	3.206595	1.000000	
927	0.000000	0.000000	0.000000	2.958874	4.943778	3.287906	1.000000	
928	0.000000	0.000000	0.000000	2.996014	4.820741	3.384836	1.000000	
929	0.000000	0.000000	0.000000	3.046118	4.689860	3.488366	1.000000	
[Spine3]
#Fr	Tx	Ty	Tz	Rx	Ry	Rz	SF
926	0.000000	0.000000	0.000000	2.930204	5.061155	3.206595	1.000000	
927	0.000000	0.000000	0.000000	2.958874	4.943778	3.287906	1.000000	
928	0.000000	0.000000	0.000000	2.996014	4.820741	3.384836	1.000000	
929	0.000000	0.000000	0.000000	3.046118	4.689860	3.488366	1.000000	
[Spine4]
#Fr	Tx	Ty	Tz	Rx	Ry	Rz	SF
926	0.000000	0.000000	0.000000	2.930204	5.061155	3.206595	1.000000	
927	0.000000	0.000000	0.000000	2.958874	4.943778	3.287906	1.000000	
928	0.000000	0.000000	0.000000	2.996014	4.820741	3.384836	1.000000	
929	0.000000	0.000000	0.000000	3.046118	4.689860	3.488366	1.000000	
[Neck]
#Fr	Tx	Ty	Tz	Rx	Ry	Rz	SF
926	0.000000	0.000000	0.000000	-13.391504	-3.547400	-9.656468	1.000000	
927	0.000000	0.000000	0.000000	-13.474645	-3.681028	-9.513901	1.000000	
928	0.000000	0.000000	0.000000	-13.535727	-3.806717	-9.390201	1.000000	
929	0.000000	0.000000	0.000000	-13.601589	-3.918191	-9.282081	1.000000	
[Head]
#Fr	Tx	Ty	Tz	Rx	Ry	Rz	SF
926	0.000000	0.000000	0.000000	-13.391504	-3.547400	-9.656468	1.000000	
927	0.000000	0.000000	0.000000	-13.474645	-3.681028	-9.513901	1.000000	
928	0.000000	0.000000	0.000000	-13.535727	-3.806717	-9.390201	1.000000	
929	0.000000	0.000000	0.000000	-13.601589	-3.918191	-9.282081	1.000000	
[LClavicle]
#Fr	Tx	Ty	Tz	Rx	Ry	Rz	SF
926	0.000000	0.000000	0.000000	10.797521	-0.578117	24.043001	1.000000	
927	0.000000	0.000000	0.000000	10.748856	-0.606768	24.207490	1.000000	
928	0.000000	0.000000	0.000000	10.687352	-0.627330	24.334852	1.000000	
929	0.000000	0.000000	0.000000	10.577548	-0.637435	24.423968	1.000000	
[LUpperArm]
#Fr	Tx	Ty	Tz	Rx	Ry	Rz	SF
926	0.000000	0.000000	0.000000	-2.726387	-33.621808	58.114127	1.000000	
927	0.000000	0.000000	0.000000	-2.637602	-30.784695	59.528453	1.000000	
928	0.000000	0.000000	0.000000	-2.425407	-27.229038	60.991704	1.000000	
929	0.000000	0.000000	0.000000	-2.029754	-22.722589	62.537632	1.000000	
[LLowerArm]
#Fr	Tx	Ty	Tz	Rx	Ry	Rz	SF
926	0.000000	0.000000	0.000000	20.705305	-0.000000	-0.000000	1.000000	
927	0.000000	0.000000	0.000000	18.911313	-0.000000	-0.000000	1.000000	
928	0.000000	0.000000	0.000000	16.729296	-0.000000	-0.000000	1.000000	
929	0.000000	0.000000	0.000000	13.970965	-0.000000	-0.000000	1.000000	
[LHand]
#Fr	Tx	Ty	Tz	Rx	Ry	Rz	SF
926	0.000000	0.000000	0.000000	5.107652	0.000000	0.000000	1.000000	
927	0.000000	0.000000	0.000000	5.139080	-0.000000	0.000000	1.000000	
928	0.000000	0.000000	0.000000	5.259487	0.000000	0.000000	1.000000	
929	0.000000	0.000000	0.000000	5.550056	-0.000000	0.000000	1.000000	
[RClavicle]
#Fr	Tx	Ty	Tz	Rx	Ry	Rz	SF
926	0.000000	0.000000	0.000000	6.159440	0.854258	-19.162018	1.000000	
927	0.000000	0.000000	0.000000	6.194297	0.850778	-19.086494	1.000000	
928	0.000000	0.000000	0.000000	6.245654	0.854704	-19.057937	1.000000	
929	0.000000	0.000000	0.000000	6.294169	0.863707	-19.078493	1.000000	
[RUpperArm]
#Fr	Tx	Ty	Tz	Rx	Ry	Rz	SF
926	0.000000	0.000000	0.000000	30.413196	14.382599	-35.259289	1.000000	
927	0.000000	0.000000	0.000000	30.339673	14.342014	-35.887051	1.000000	
928	0.000000	0.000000	0.000000	30.336854	14.359961	-36.437333	1.000000	
929	0.000000	0.000000	0.000000	30.362022	14.620095	-36.824931	1.000000	
[RLowerArm]
#Fr	Tx	Ty	Tz	Rx	Ry	Rz	SF
926	0.000000	0.000000	0.000000	22.282734	-0.000000	-0.000000	1.000000	
927	0.000000	0.000000	0.000000	22.358977	-0.000000	-0.000000	1.000000	
928	0.000000	0.000000	0.000000	22.394113	-0.000000	-0.000000	1.000000	
929	0.000000	0.000000	0.000000	22.378379	-0.000000	-0.000000	1.000000	
[RHand]
#Fr	Tx	Ty	Tz	Rx	Ry	Rz	SF
926	0.000000	0.000000	0.000000	-36.121039	-68.021788	6.449319	1.000000	
927	0.000000	0.000000	0.000000	-35.759034	-67.533617	5.810561	1.000000	
928	0.000000	0.000000	0.000000	-36.204317	-67.251478	5.732102	1.000000	
929	0.000000	0.000000	0.000000	-35.353325	-66.822819	4.767392	1.000000	
[RUpperLeg]
#Fr	Tx	Ty	Tz	Rx	Ry	Rz	SF
926	0.000000	0.000000	0.000000	44.434805	-4.918690	-7.956856	1.000000	
927	0.000000	0.000000	0.000000	45.765745	-4.963042	-8.071487	1.000000	
928	0.000000	0.000000	0.000000	47.087165	-4.992824	-8.205130	1.000000	
929	0.000000	0.000000	0.000000	48.412035	-5.030381	-8.385870	1.000000	
[RLowerLeg]
#Fr	Tx	Ty	Tz	Rx	Ry	Rz	SF
926	0.000000	0.000000	0.000000	-93.149192	0.000000	0.000000	1.000000	
927	0.000000	0.000000	0.000000	-94.697759	0.000000	0.000000	1.000000	
928	0.000000	0.000000	0.000000	-96.097585	0.000000	0.000000	1.000000	
929	0.000000	0.000000	0.000000	-97.349597	0.000000	0.000000	1.000000	
[RFoot]
#Fr	Tx	Ty	Tz	Rx	Ry	Rz	SF
926	0.000000	0.000000	0.000000	-21.098972	41.847752	-21.168607	1.000000	
927	0.000000	0.000000	0.000000	-18.839473	40.785192	-20.008189	1.000000	
928	0.000000	0.000000	0.000000	-16.767681	39.657950	-18.995089	1.000000	
929	0.000000	0.000000	0.000000	-14.906083	38.575898	-18.126264	1.000000	
[RToes]
#Fr	Tx	Ty	Tz	Rx	Ry	Rz	SF
926	0.000000	0.000000	0.000000	-43.074104	-0.000000	0.000000	1.000000	
927	0.000000	0.000000	0.000000	-42.789088	0.000000	0.000000	1.000000	
928	0.000000	0.000000	0.000000	-42.385222	0.000000	0.000000	1.000000	
929	0.000000	0.000000	0.000000	-41.887311	0.000000	0.000000	1.000000	
[LUpperLeg]
#Fr	Tx	Ty	Tz	Rx	Ry	Rz	SF
926	0.000000	0.000000	0.000000	48.572050	-19.249407	-11.736370	1.000000	
927	0.000000	0.000000	0.000000	48.705586	-18.470165	-10.693837	1.000000	
928	0.000000	0.000000	0.000000	48.834618	-17.676083	-9.651337	1.000000	
929	0.000000	0.000000	0.000000	48.961486	-16.876602	-8.631087	1.000000	
[LLowerLeg]
#Fr	Tx	Ty	Tz	Rx	Ry	Rz	SF
926	0.000000	0.000000	0.000000	-68.649371	0.000000	-0.000000	1.000000	
927	0.000000	0.000000	0.000000	-70.007328	0.000000	-0.000000	1.000000	
928	0.000000	0.000000	0.000000	-71.370530	0.000000	-0.000000	1.000000	
929	0.000000	0.000000	0.000000	-72.728096	0.000000	-0.000000	1.000000	
[LFoot]
#Fr	Tx	Ty	Tz	Rx	Ry	Rz	SF
926	0.000000	0.000000	0.000000	-3.661319	-5.560133	-50.508832	1.000000	
927	0.000000	0.000000	0.000000	-3.573462	-5.296905	-49.354881	1.000000	
928	0.000000	0.000000	0.000000	-3.428806	-5.106100	-48.200892	1.000000	
929	0.000000	0.000000	0.000000	-3.219522	-4.999698	-47.037074	1.000000	
[LToes]
#Fr	Tx	Ty	Tz	Rx	Ry	Rz	SF
926	0.000000	0.000000	0.000000	0.653149	-0.000000	0.000000	1.000000	
927	0.000000	0.000000	0.000000	1.047460	-0.000000	0.000000	1.000000	
928	0.000000	0.000000	0.000000	1.391466	-0.000000	0.000000	1.000000	
929	0.000000	0.000000	0.000000	1.678411	-0.000000	0.000000	1.000000	
